<?xml version="1.0" standalone="no"?>
<!DOCTYPE svg PUBLIC "-//W3C//DTD SVG 20010904//EN"
 "http://www.w3.org/TR/2001/REC-SVG-20010904/DTD/svg10.dtd">
<svg version="1.0" xmlns="http://www.w3.org/2000/svg"
 width="500.000000pt" height="500.000000pt" viewBox="0 0 500.000000 500.000000"
 preserveAspectRatio="xMidYMid meet">

<g transform="translate(0.000000,500.000000) scale(0.100000,-0.100000)"
fill="#000000" stroke="none">
<path d="M390 4685 l0 -155 985 0 985 0 0 155 0 155 -985 0 -985 0 0 -155z"/>
<path d="M2680 3735 l0 -1105 155 0 155 0 0 515 0 515 655 0 655 0 0 -515 0
-515 155 0 155 0 0 1105 0 1105 -155 0 -155 0 0 -435 0 -435 -655 0 -655 0 0
435 0 435 -155 0 -155 0 0 -1105z"/>
<path d="M1200 3495 l0 -865 155 0 155 0 0 865 0 865 -155 0 -155 0 0 -865z"/>
<path d="M911 2319 c-251 -43 -463 -257 -507 -512 -23 -132 -15 -1126 9 -1207
45 -150 136 -274 261 -358 152 -101 247 -116 723 -109 368 4 399 8 518 67 164
80 281 225 332 410 16 59 18 117 18 620 0 617 1 606 -67 749 -71 148 -217 271
-388 327 -48 16 -102 18 -450 20 -217 1 -419 -2 -449 -7z m864 -334 c68 -33
138 -110 162 -178 17 -48 18 -95 18 -582 l0 -530 -26 -55 c-36 -78 -80 -124
-151 -160 l-61 -30 -386 0 -386 0 -51 24 c-102 47 -163 126 -184 236 -14 75
-13 984 1 1052 14 66 31 99 76 148 43 49 94 81 148 95 26 6 182 9 414 8 l372
-1 54 -27z"/>
<path d="M3990 2165 l0 -155 155 0 155 0 0 -940 0 -940 155 0 155 0 0 1095 0
1095 -310 0 -310 0 0 -155z"/>
</g>
</svg>
